<?xml version="1.0" encoding="UTF-8"?>
<svg width="222px" height="100px" viewBox="0 0 222 100" version="1.1" xmlns="http://www.w3.org/2000/svg" xmlns:xlink="http://www.w3.org/1999/xlink">
    <title>luca</title>
    <g id="LUCA" stroke="none" stroke-width="1" fill="none" fill-rule="evenodd">
        <g id="01-Startscreen" transform="translate(-32.000000, -34.000000)" fill="#FFFFFF" fill-rule="nonzero">
            <path d="M46.52,131.76 C48.32,131.76 53,132 56.48,132 C57.44,132 57.44,130.92 56.48,130.92 C50.0204255,130.92 49.423196,130.230312 49.4007062,118.500731 L49.4,35.28 C49.4,34.68 47.6,34.08 47.24,34.44 C43.04,36.72 38.84,38.76 32.72,39.84 C31.76,39.96 31.76,41.04 32.72,40.92 C38.72,39.96 40.4,39.96 40.4,50.28 L40.4,117.72 C40.4,129.48 40.16,130.92 35,130.92 C34.04,130.92 34.04,132 35,132 C38.48,132 44.6,131.76 46.52,131.76 Z M107.36,133.2 C110.72,132.84 115.4,132 122.96,132 C123.8,132 123.8,130.92 122.96,130.92 C117.210667,130.92 116.624,129.887467 116.600765,118.511754 L116.6,72.12 C116.6,71.52 114.8,70.92 114.44,71.28 C110.24,73.56 106.04,75.6 99.92,76.68 C98.96,76.8 98.96,77.88 99.92,77.76 C105.92,76.8 107.6,76.44 107.6,86.76 L107.6,118.68 C101.84,126.36 96.92,129.6 89.36,129.6 C82.16,129.6 75.2,124.92 75.2,110.04 L75.2,72.12 C75.2,71.52 73.4,70.92 73.04,71.28 C68.84,73.56 64.52,75.6 58.4,76.68 C57.44,76.8 57.44,77.88 58.4,77.76 C64.4,76.8 66.08,76.44 66.08,86.76 L66.08,108.84 C66.08,127.68 74.48,133.2 85.4,133.2 C94.52,133.2 101.48,128.28 107.6,120.12 C107.48,126.84 106.4,131.28 106.4,132.12 C106.4,132.96 106.4,133.32 107.36,133.2 Z M158.36,133.2 C171.56,133.2 184.04,123 190.88,110.4 C191.12,110.04 191.12,109.68 190.76,109.56 C190.4,109.44 190.16,109.56 189.92,110.04 C183.8,121.08 176.24,126.48 164.84,126.48 C148.64,126.48 137.36,114.84 137.36,99 C137.36,82.68 146.84,73.44 158.72,73.44 C170.36,73.44 172.88,84.72 177.92,84.72 C181.76,84.72 183.8,81.84 183.8,79.8 C183.8,75.6 175.52,70.8 163.76,70.8 C146.12,70.8 129.56,87.12 129.56,104.4 C129.56,121.32 141.44,133.2 158.36,133.2 Z M208.88,133.32 C217.28,133.32 229.88,120.36 233.12,114.84 C232.76,117.36 232.64,121.44 232.64,124.68 C232.64,130.08 234.8,133.2 239.48,133.2 C244.16,133.2 251.84,126.24 253.64,123.48 C254.24,122.52 252.8,121.56 252.2,122.52 C251,125.04 247.76,129.12 245.72,129.12 C243.2,129.12 242.36,125.76 242.36,118.92 C242.36,114.12 243.32,100.68 243.32,92.64 C243.32,76.92 234.92,70.8 223.04,70.8 C214.52,70.8 204.32,75.84 199.64,78.96 C196.64,80.88 195.44,83.16 195.44,84.6 C195.44,86.4 197.36,87.36 200.24,87.36 C203.48,87.36 204.56,86.76 205.64,85.2 C208.16,81.36 210.68,71.88 221.12,71.88 C229.88,71.88 233.36,76.44 233.96,91.44 L224,95.28 C201.8,103.92 194,111.84 194,119.88 C194,127.2 199.28,133.32 208.88,133.32 Z M214.88,128.04 C209.12,128.04 202.4,122.88 202.4,116.4 C202.4,107.52 206.6,103.8 224.24,96.48 L234.08,92.28 L234.08,94.8 C234.08,104.76 233.48,110.52 233.36,112.08 C232.4,116.04 221.48,128.04 214.88,128.04 Z" id="luca"></path>
        </g>
    </g>
</svg>